<svg width="26" height="13" viewBox="0 0 26 13" fill="none" xmlns="http://www.w3.org/2000/svg"><path fill-rule="evenodd" clip-rule="evenodd" d="M7.419.333c-.357.023-.632.148-.95.547l-2.7 3.407C2.626 4.55.124 5.265.124 6.67v2.834c0 .297.217.542.48.542h1.839c-.046-.211-.07-.43-.07-.654 0-1.705 1.4-3.087 3.13-3.087s3.131 1.382 3.131 3.087c0 .224-.024.443-.07.654h7.898c-.046-.211-.07-.43-.07-.654 0-1.705 1.401-3.087 3.13-3.087 1.73 0 3.13 1.382 3.13 3.087 0 .224-.024.443-.07.654h2.843c.263 0 .48-.214.48-.473V7.097c0-1.469-4.595-2.523-5.899-2.81L16.628.881c-.398-.4-.698-.525-1.06-.548h-8.15zm3.67 1.257a.477.477 0 0 0-.479.473v1.752c0 .26.216.473.48.473h5.66c.265 0 .268-.212.008-.473l-1.75-1.752c-.26-.26-.687-.473-.951-.473H11.09zm-.752.473a.477.477 0 0 0-.48-.473h-1.68c-.264 0-.65.212-.858.473l-1.4 1.752c-.207.26-.162.473.103.473h3.835c.264 0 .48-.212.48-.473V2.063zm9.192 4.666c1.491 0 2.7 1.192 2.7 2.662s-1.209 2.661-2.7 2.661c-1.49 0-2.699-1.192-2.699-2.661 0-1.47 1.209-2.662 2.7-2.662zm1.377 2.662c0-.752-.618-1.361-1.38-1.361-.763 0-1.382.61-1.382 1.361 0 .752.619 1.361 1.381 1.361.763 0 1.381-.609 1.381-1.36zM5.51 6.73c-1.49 0-2.7 1.192-2.7 2.662s1.21 2.661 2.7 2.661c1.49 0 2.7-1.192 2.7-2.661 0-1.47-1.21-2.662-2.7-2.662zM4.126 9.391c0-.752.618-1.361 1.38-1.361.763 0 1.381.61 1.381 1.361a1.37 1.37 0 0 1-1.38 1.361 1.37 1.37 0 0 1-1.381-1.36z" fill="#fff"/></svg>