<svg width="157" height="32" viewBox="0 0 157 32" fill="none" xmlns="http://www.w3.org/2000/svg"><path d="M141.9 12.7l.3 2s-1.7-.9-3.8-.7c-1.2.1-2 .5-2.7 1v10.1h-2.8V12.6l2.8-.4v1.2c.5-.4 1.5-1 2.8-1.1 1.5 0 3.1.3 3.4.4zM67.8 24c1.1-.1 3-.3 3-2.1 0-.6-.4-1.1-1.1-1.5-.9-.5-2.1-1-2.5-1.2-1.8-.8-3.8-1.6-3.8-3.5 0-2.1 1.6-3.6 5.4-3.6 1.7 0 3.7.5 3.7.5v1.9s-2.2-1.1-4-1.1c-1.3 0-2.5.4-2.5 1.5 0 .6.4 1 1.1 1.4 1 .5 2.1.9 2.5 1.1 1.9.7 3.8 1.7 3.8 3.9 0 2.8-2.6 3.9-5.8 3.9-2.7 0-4.3-.5-4.3-.5v-1.1c-.1.2 2.6.5 4.5.4zm18.8-9.4s-2.1-1.1-3.9-1.1c-3.4 0-4.1 2.5-4.1 4 0 1.6.1 3.2 1.2 4.4 1 1.2 3.2 2.1 5.2 2.1.9 0 1.9-.2 1.9-.2v1.1s-1.5.5-3.6.5c-5.7 0-7.8-2.9-7.8-6.9 0-3.4 1.7-6.2 6.4-6.2 2.8 0 4.7.5 4.7.5v1.8zm40.4 2c0-1.6-1.1-3.1-2.8-3.1-2.6 0-3.1 2.1-3.3 3.1h6.1zm2.8 8.2s-1.5.5-4.1.5c-4.8 0-7.6-2.5-7.6-6.9 0-3.8 1.8-6.2 6.6-6.2 3.1 0 5.5 1.8 5.5 5v.5h-9.3c0 1.3.2 3.1 1.3 4.3 1.1 1.2 3 1.9 5.1 1.9 1 0 2.4-.4 2.4-.4l.1 1.3zm-26.3-12l2.8-.4 4.6 9.4 4.3-9.4h2.1l-6 12.8h-1.7l-6.1-12.4zM95.7 24c3.4 0 3.7-3.1 3.7-5.2 0-2.2-.5-5.3-3.8-5.3-3.5 0-3.7 3.1-3.7 5.3 0 2 .6 5.2 3.8 5.2zm-6.9-5.2c0-3.9 2-6.6 6.8-6.6 4.3 0 6.8 2.6 6.8 6.6 0 4-2.2 6.5-6.8 6.5-4.4 0-6.8-2.7-6.8-6.5zM56.4 8.3c0-.9.9-1.6 2-1.6s2 .7 2 1.6c0 1-.9 1.6-2 1.6s-2-.7-2-1.6zm.7 4.2l2.8-.4V25h-2.8V12.5zM43.5 7c2.9 0 5.7.7 7.7 2.2 2.1 1.6 3.3 4.2 3.3 6.8 0 2.6-1.1 5.2-3.2 6.8-1.9 1.5-4.8 2.2-7.7 2.2h-5.3V7h5.2zm-2.2 1.3v15.3c2 0 4-.2 5.3-.7 2.9-1.3 4.3-4 4.3-6.9 0-2.9-1.4-5.6-4.3-6.9-1.3-.6-3.2-.8-5.3-.8zm102.4 4.2l2.7-.3 3.7 9.2 4.2-9.2h2.1l-5.9 13.1c-1 2.1-2.7 4.8-5.9 4.8h-.5v-1.9c3.2.2 4.5-2.2 4.5-3.1 0-.7-.4-1.5-.4-1.5l-4.5-11.1z" fill="#004B8D"/><path d="M10.8 8.9c-.8.8-1.6 1.6-2.3 2.4 2.5 2.7 5 5.3 7.6 7.8 2.6-2.5 5.1-5.1 7.6-7.8-.9-.8-1.7-1.5-2.5-2.3-1.8 1.7-3.5 3.3-5.2 5.1-1.7-1.8-3.5-3.5-5.2-5.2zm2.4-2.1c1 .8 1.9 1.6 2.8 2.5.9-.8 1.9-1.7 2.8-2.5C17.9 6 17 5.3 16 4.6c-1 .7-1.9 1.4-2.8 2.2zm-6.9 6.9c-.6.8-1.2 1.5-1.7 2.3 3.1 4.3 7 8.2 11.4 11.3 4.4-3.1 8.2-6.9 11.3-11.3-.5-.8-1.1-1.5-1.7-2.3-2.9 3.6-6.1 6.9-9.6 10-3.5-3-6.7-6.4-9.7-10zM1.9 16c0-7.6 6.4-14.1 14-14.1s14 6.5 14 14.1-6.4 14.1-14 14.1-14-6.5-14-14.1zM0 16C0 7.2 7.1 0 15.9 0s15.9 7.2 15.9 16-7.1 16-15.9 16S0 24.8 0 16zm1.1 0c0 8.2 6.6 14.9 14.8 14.9 8.2 0 14.9-6.7 14.9-14.9S24.2 1.1 16 1.1C7.7 1.1 1.1 7.8 1.1 16z" fill="#BA8C60"/></svg>