<svg width="48" height="48" viewBox="0 0 48 48" fill="none" xmlns="http://www.w3.org/2000/svg"><path d="M46.042 18.71l-2.699-.646c-.386-1.29-.9-2.516-1.542-3.677L43.279 12c.321-.58.321-1.29-.129-1.806 0-.065-.064-.13-.128-.194l-5.205-5.226c-.514-.516-1.35-.645-1.992-.258L33.447 6a18.373 18.373 0 0 0-3.663-1.548l-.642-2.71A1.659 1.659 0 0 0 27.535.516H20.21c-.771 0-1.414.516-1.607 1.226l-.642 2.71A18.372 18.372 0 0 0 14.298 6L11.92 4.516c-.642-.387-1.478-.258-1.992.258L4.723 10c-.514.516-.642 1.355-.257 2l1.478 2.387a18.527 18.527 0 0 0-1.542 3.677l-2.699.646a1.663 1.663 0 0 0-1.22 1.613v7.354c0 .775.513 1.42 1.22 1.613l2.699.71c.386 1.29.9 2.516 1.542 3.677l-1.478 2.388c-.385.645-.257 1.483.257 2l5.205 5.225c.514.516 1.35.645 1.992.258l2.378-1.483a18.37 18.37 0 0 0 3.663 1.548l.642 2.774c.193.71.836 1.161 1.542 1.161h7.326a1.66 1.66 0 0 0 1.607-1.225l.706-2.71a18.372 18.372 0 0 0 3.663-1.548l2.378 1.483c.642.387 1.478.258 1.992-.258l5.205-5.225c.514-.517.642-1.355.257-2L41.8 33.677c.642-1.16 1.092-2.387 1.478-3.677l2.699-.645a1.663 1.663 0 0 0 1.22-1.613v-7.42c.065-.774-.45-1.419-1.156-1.612zm-.064 8.967c0 .13-.129.323-.257.323l-3.02.774c-.258.065-.386.258-.45.452-.386 1.42-.964 2.774-1.671 4.064a.588.588 0 0 0 0 .645l1.606 2.71a.399.399 0 0 1-.064.452l-5.205 5.226c-.128.129-.257.129-.45.064l-2.699-1.613a.582.582 0 0 0-.642 0c-1.285.71-2.635 1.29-4.048 1.678a.778.778 0 0 0-.45.451l-.771 3.032c-.065.13-.193.258-.322.258H20.21c-.129 0-.322-.128-.322-.193l-.77-3.097c-.065-.258-.258-.387-.45-.451-1.414-.387-2.764-.968-4.049-1.678-.128-.064-.193-.064-.321-.064-.129 0-.257 0-.321.064l-2.7 1.613a.395.395 0 0 1-.45-.064l-5.204-5.226c-.129-.13-.129-.258-.064-.452l1.67-2.71a.588.588 0 0 0 0-.645c-.706-1.29-1.285-2.645-1.67-4.064a.778.778 0 0 0-.45-.452L2.024 28c-.128-.064-.257-.194-.257-.323v-7.354c0-.13.129-.323.257-.323l3.085-.774a.778.778 0 0 0 .45-.452c.385-1.42.964-2.774 1.67-4.064a.588.588 0 0 0 0-.646l-1.67-2.71a.399.399 0 0 1 .064-.45l5.205-5.227c.128-.129.257-.129.45-.064l2.699 1.613c.192.129.45.129.642 0 1.285-.71 2.635-1.29 4.049-1.678a.778.778 0 0 0 .45-.451L19.887 2c.065-.13.193-.258.322-.258h7.325c.129 0 .322.129.322.258l.77 3.097a.778.778 0 0 0 .45.451c1.414.387 2.764.968 4.049 1.678.193.129.45.129.642 0l2.7-1.613a.395.395 0 0 1 .45.064l5.075 5.097c0 .065.065.065.065.13.128.128.128.257.064.45l-1.606 2.71a.588.588 0 0 0 0 .646c.706 1.29 1.285 2.645 1.67 4.064a.778.778 0 0 0 .45.452l3.085.774c.128.064.257.194.257.323v7.354z" fill="#114B8A"/><path d="M18.924 21.226c.386 0 .643-.258.643-.645s-.257-.646-.643-.646h-3.47c-.385 0-.642.259-.642.646v6.838c0 .387.257.645.643.645h3.47c.385 0 .642-.258.642-.645s-.257-.645-.643-.645h-2.827v-2.258h2.699c.386 0 .643-.258.643-.645s-.257-.645-.643-.645h-2.699v-2h2.827zM24.965 23.226H22.33v-2h3.02c.386 0 .643-.258.643-.645s-.257-.646-.642-.646H21.366c-.064 0-.064.065-.128.065s-.064.064-.129.064c0 0-.064.065-.064.13 0 .064-.064.064-.064.129v.258l.064 6.838c0 .323.321.645.643.645a.645.645 0 0 0 .642-.645l-.064-2.903h2.635c.385 0 .642-.258.642-.645s-.192-.645-.578-.645zM29.977 20.323c-.128-.259-.321-.388-.578-.388-.257 0-.514.13-.579.388l-2.956 6.838c-.128.323 0 .71.322.839.321.129.707 0 .835-.323l.835-2h3.02l.836 2c.129.258.321.387.578.387.065 0 .193 0 .257-.064.322-.13.45-.516.322-.839l-2.892-6.838zm-1.542 4.129l.964-2.259.964 2.259h-1.928z" fill="#114B8A"/><path d="M23.872 8.71C15.454 8.71 8.643 15.548 8.643 24c0 8.452 6.811 15.29 15.23 15.29 8.417 0 15.229-6.838 15.229-15.29 0-8.452-6.812-15.29-15.23-15.29zm0 29.29c-7.71 0-13.944-6.258-13.944-14s6.233-14 13.944-14c7.712 0 13.945 6.258 13.945 14s-6.233 14-13.945 14z" fill="#114B8A"/></svg>