<svg width="48" height="48" viewBox="0 0 48 48" fill="none" xmlns="http://www.w3.org/2000/svg"><path d="M38.468 17.516H9.58c-.29 0-.484-.193-.484-.483s.193-.484.484-.484h28.887c.29 0 .483.193.483.483s-.242.484-.483.484zM23.661 11.467h-5.758c-.29 0-.483-.193-.483-.483s.193-.484.483-.484h5.758c.29 0 .484.194.484.484s-.194.483-.484.483z" fill="#116ECB"/><path d="M9.58 17.516c-.29 0-.483-.193-.483-.483v-5.517c0-.58.484-1.064 1.064-1.064h5.08c.29 0 .484.194.484.484s-.193.483-.483.483h-5.13a.104.104 0 0 0-.097.097v5.468a.462.462 0 0 1-.435.532z" fill="#116ECB"/><path d="M36.049 39.58H11.952a2.912 2.912 0 0 1-2.903-2.903V17.032c0-.29.193-.484.484-.484.29 0 .483.194.483.484v19.693c0 1.064.871 1.936 1.936 1.936h24.049c1.064 0 1.936-.87 1.936-1.936v-25.16c0-.05-.05-.098-.097-.098h-3c-.29 0-.484-.193-.484-.483s.194-.484.484-.484h3c.58 0 1.064.484 1.064 1.064v25.161c.049 1.549-1.258 2.855-2.855 2.855z" fill="#116ECB"/><path d="M32.177 11.467H26.42c-.29 0-.483-.193-.483-.483s.193-.484.483-.484h5.758c.29 0 .484.194.484.484s-.242.483-.484.483zM15.533 13.597c-.29 0-.484-.194-.484-.484v-4.21c0-.29.193-.484.484-.484.29 0 .483.194.483.484v4.21c0 .242-.242.484-.483.484zM24 13.597c-.29 0-.484-.194-.484-.484v-4.21c0-.29.194-.484.484-.484s.484.194.484.484v4.21a.485.485 0 0 1-.484.484z" fill="#116ECB"/><path d="M32.516 13.597c-.29 0-.483-.194-.483-.484v-4.21c0-.29.193-.484.483-.484s.484.194.484.484v4.21c0 .242-.242.484-.484.484zM30.387 30.968c-.29 0-.484-.194-.484-.484s.194-.484.484-.484h1.694a.213.213 0 0 0 .145-.049c0-.049.049-.096.049-.145v-1.404c-.146-.145-.823-.58-3.34-1.113-.096 0-.145-.048-.193-.096a8.655 8.655 0 0 0-5.66-1.936h-2.42c-.34 0-.58.145-.968.436-.677.435-1.645 1.064-3.726 1.113v3c0 .048.242.29 1.017.29h.726c.29 0 .483.194.483.484s-.193.484-.483.484h-.726c-.823 0-1.404-.194-1.694-.581-.29-.387-.29-.726-.29-.87v-2.855c0-.726.532-.968.87-.968 1.888 0 2.71-.532 3.34-.92.435-.29.87-.58 1.5-.58h2.419c2.226-.049 4.451.678 6.194 2.08 3.193.727 3.773 1.307 3.919 1.694.049.146.049.242.049.387v1.307c0 .339-.097.677-.34.87-.241.194-.532.34-.87.34H30.387z" fill="#116ECB"/><path d="M18.92 32.032c-.92 0-1.694-.725-1.694-1.645 0-.436.194-.87.484-1.21a1.572 1.572 0 0 1 1.16-.483c.92 0 1.694.774 1.694 1.645 0 .968-.726 1.694-1.645 1.694zm0-2.371a.74.74 0 0 0-.484.194.62.62 0 0 0-.194.483c0 .387.34.726.726.726a.745.745 0 0 0 .726-.726c-.096-.339-.387-.677-.774-.677zM29.08 32.032c-.919 0-1.693-.725-1.693-1.645 0-.436.194-.87.484-1.21a1.572 1.572 0 0 1 1.16-.483c.92 0 1.694.726 1.694 1.645.049.968-.726 1.694-1.645 1.694zm0-2.371a.74.74 0 0 0-.483.194.62.62 0 0 0-.194.483c0 .387.34.726.726.726a.745.745 0 0 0 .726-.726c-.049-.339-.387-.677-.774-.677zM25.694 30.968h-3.436c-.29 0-.484-.194-.484-.484s.194-.484.484-.484h3.436c.29 0 .483.194.483.484s-.193.483-.483.483z" fill="#116ECB"/></svg>