<svg width="64" height="64" viewBox="0 0 64 64" fill="none" xmlns="http://www.w3.org/2000/svg"><path d="M48.452 51.29c-.387 0-.645-.258-.645-.645V12.258c0-.387-.258-.645-.645-.645h-7.226c-.387 0-.645-.258-.645-.645s.258-.645.645-.645h7.29a1.9 1.9 0 0 1 1.935 1.935v38.387c-.065.387-.323.645-.71.645h.001z" fill="#F8C600"/><path d="M17.419 55.484c-1.355 0-2.452-1.097-2.516-2.452V12.838a2.52 2.52 0 0 1 2.516-2.516h5.806V9.161c0-.387.258-.645.645-.645h16.064c.387 0 .645.258.645.645v7.097c0 .387-.258.645-.645.645H23.87c-.387 0-.645-.258-.645-.645v-4.645h-5.806c-.645 0-1.226.516-1.226 1.226v40.194c0 .645.581 1.161 1.226 1.161h26.839c.387 0 .645.258.645.645s-.258.645-.645.645H17.419zm7.097-39.871H39.29V9.807H24.516v5.806z" fill="#F8C600"/><path d="M36.581 52.516H19.807c-.581 0-1.097-.258-1.484-.71-.387-.387-.581-.968-.581-1.548V15.419c0-.581.194-1.097.581-1.484.387-.387.903-.645 1.484-.645h1.355c.387 0 .645.258.645.645s-.258.645-.645.645h-1.355c-.194 0-.452.129-.581.258-.129.194-.258.387-.258.581v34.839c0 .258.064.452.194.645s.387.258.581.258h16.452l8.71-9.097V15.483a.83.83 0 0 0-.258-.645c-.193-.193-.387-.258-.581-.258h-1.548c-.387 0-.645-.258-.645-.645s.258-.645.645-.645h1.548c.581 0 1.097.258 1.484.645s.581.968.581 1.548v26.904a.586.586 0 0 1-.194.452l-8.903 9.484a.699.699 0 0 1-.452.194l-.001-.001z" fill="#F8C600"/><path d="M36.581 52.516c-.387 0-.645-.258-.645-.645v-9.484c0-.387.258-.645.645-.645h4.581c.387 0 .645.258.645.645s-.258.645-.645.645h-3.935v8.839a.647.647 0 0 1-.645.645h-.001zM22.71 31.161a.583.583 0 0 1-.452-.194.588.588 0 0 1-.194-.452c0-.194.064-.323.194-.452a.624.624 0 0 1 .903 0 .699.699 0 0 1 .194.452.583.583 0 0 1-.194.452c-.129.064-.258.194-.452.194h.001zM41.097 31.161H24.903c-.387 0-.645-.258-.645-.645s.258-.645.645-.645h16.194c.387 0 .645.258.645.645s-.258.645-.645.645zM22.71 34.194a.586.586 0 0 1-.452-.194.586.586 0 0 1-.194-.452c0-.065 0-.194.064-.258 0-.065.064-.129.129-.194s.129-.129.194-.129.258-.065.387-.065c.064 0 .064 0 .129.065.064 0 .129.065.194.129s.129.129.129.194.064.129.064.258a.583.583 0 0 1-.194.452.588.588 0 0 1-.452.194h.002zM41.097 34.194H24.903c-.387 0-.645-.258-.645-.645s.258-.645.645-.645h16.194c.387 0 .645.258.645.645s-.258.645-.645.645zM22.71 37.226a.586.586 0 0 1-.452-.194.586.586 0 0 1-.194-.452c0-.065 0-.194.064-.258 0-.065.064-.13.129-.194a.624.624 0 0 1 .903 0 .699.699 0 0 1 .194.452.583.583 0 0 1-.194.452.588.588 0 0 1-.452.194h.002zM41.097 37.226H24.903c-.387 0-.645-.258-.645-.645s.258-.645.645-.645h16.194c.387 0 .645.258.645.645s-.258.645-.645.645zM39.742 26.452h-1.677c-.387 0-.645-.258-.645-.645s.258-.645.645-.645h1.677l.71-.064h-.645v-1.29c-.194-.129-.903-.516-3.097-1.032-.129 0-.194-.064-.258-.129-1.484-1.226-3.419-1.936-5.355-1.871H28.71c-.258 0-.452.129-.839.387-.645.452-1.613 1.032-3.548 1.097v2.645c.064.064.258.129.839.129h.71c.387 0 .645.258.645.645s-.258.645-.645.645h-.71c-.839 0-1.484-.194-1.806-.645a1.38 1.38 0 0 1-.323-.839v-2.774c0-.71.516-1.097 1.032-1.097 1.806 0 2.516-.452 3.161-.903.452-.323.903-.581 1.548-.581h2.387c2.194-.064 4.387.71 6.065 2.064 3.097.71 3.742 1.226 3.935 1.742.065.129.065.323.065.452v1.29c0 .387-.129.71-.387.968-.387.323-.71.452-1.097.452v-.001z" fill="#F8C600"/><path d="M26.903 27.484c-1.032 0-1.806-.839-1.806-1.871 0-.968.839-1.742 1.806-1.742.452 0 .903.194 1.29.516a1.8 1.8 0 0 1 .516 1.29v.064c0 .452-.194.903-.581 1.29-.323.258-.774.452-1.226.452l.001.001zm0-2.323c-.258 0-.516.258-.516.516a.51.51 0 0 0 .516.516c.129 0 .258-.064.387-.129s.129-.194.129-.387c0-.129-.064-.258-.129-.387-.129-.064-.258-.129-.387-.129zM36.839 27.484c-.968 0-1.806-.84-1.806-1.806 0-.967.839-1.806 1.806-1.806.452 0 .903.194 1.29.516a1.8 1.8 0 0 1 .516 1.29 1.803 1.803 0 0 1-1.806 1.806zm0-2.323a.508.508 0 0 0-.516.516c0 .258.258.516.516.516s.516-.258.516-.516c0-.13-.065-.258-.129-.387-.129-.064-.258-.13-.387-.13zM33.548 26.452h-3.355c-.387 0-.645-.258-.645-.645s.258-.645.645-.645h3.355c.387 0 .645.258.645.645a.647.647 0 0 1-.645.645z" fill="#F8C600"/></svg>