<svg width="48" height="48" viewBox="0 0 48 48" fill="none" xmlns="http://www.w3.org/2000/svg"><path d="M24.049 38.758c-.774 0-1.597-.049-2.371-.194-3.87-.629-7.307-2.758-9.63-5.951a14.597 14.597 0 0 1-2.612-10.984A14.688 14.688 0 0 1 21.629 9.436c.242-.049.533.145.533.387.048.242-.146.532-.387.532-5.807.968-10.403 5.564-11.371 11.42-.58 3.629.29 7.258 2.42 10.258 2.177 3 5.322 4.935 9 5.564 3.629.58 7.257-.29 10.257-2.42 3-2.177 4.936-5.322 5.564-9 .581-3.629-.29-7.258-2.419-10.258-2.177-3-5.323-4.935-9-5.564-.242-.049-.436-.29-.387-.532.049-.242.29-.436.533-.387 3.87.629 7.306 2.758 9.629 5.952a14.599 14.599 0 0 1 2.613 10.984c-.63 3.87-2.758 7.306-5.951 9.629a14.84 14.84 0 0 1-8.613 2.758l-.001-.001z" fill="#116ECB"/><path d="M10.064 21.532a.508.508 0 0 1-.435-.242c-.146-.242-.05-.532.193-.677 3.87-2.08 8.903-3.194 14.177-3.194 5.274 0 10.355 1.113 14.177 3.194.243.146.34.436.194.677-.145.242-.436.34-.677.194-3.677-1.984-8.564-3.097-13.694-3.097-5.129 0-9.967 1.113-13.742 3.097-.049.048-.146.048-.194.048h.001zM20.323 37.984h-.097a.501.501 0 0 1-.387-.58 8.601 8.601 0 0 0 .097-2.952c-.58-4.887-5.08-8.323-9.968-7.742-.242.049-.484-.146-.532-.436-.049-.242.145-.484.435-.533 5.42-.677 10.404 3.146 11.081 8.565a9.139 9.139 0 0 1-.146 3.242c-.047.29-.242.436-.483.436zM27.484 37.984a.47.47 0 0 1-.484-.387 11.805 11.805 0 0 1-.145-3.194c.677-5.42 5.66-9.29 11.08-8.613.242.049.436.29.436.533-.049.242-.29.483-.533.436A8.945 8.945 0 0 0 27.822 34.5c-.097.967-.097 1.936.097 2.854.049.242-.097.533-.387.58 0 .05 0 .05-.049.05v-.001z" fill="#116ECB"/><path d="M24 27.436A3.45 3.45 0 0 1 20.564 24 3.449 3.449 0 0 1 24 20.564 3.448 3.448 0 0 1 27.436 24 3.449 3.449 0 0 1 24 27.436zm0-5.952a2.478 2.478 0 0 0-2.468 2.467A2.478 2.478 0 0 0 24 26.42a2.478 2.478 0 0 0 2.468-2.468A2.478 2.478 0 0 0 24 21.484z" fill="#116ECB"/><path d="M24 41.613c-9.726 0-17.613-7.887-17.613-17.613 0-9.726 7.887-17.613 17.613-17.613 9.726 0 17.613 7.887 17.613 17.613 0 9.726-7.887 17.613-17.613 17.613zm0-34.259C14.806 7.354 7.354 14.806 7.354 24S14.806 40.645 24 40.645 40.645 33.195 40.645 24c0-9.194-7.45-16.646-16.645-16.646z" fill="#116ECB"/></svg>