<svg width="48" height="48" viewBox="0 0 48 48" fill="none" xmlns="http://www.w3.org/2000/svg"><path d="M11.274 31.742H9.871c-1.452 0-2.468-.339-3.049-.967-.436-.533-.436-1.064-.436-1.21v-5.71c0-.29.194-.483.484-.483s.484.193.484.483v5.759s0 .242.193.532c.243.29.871.63 2.274.63h1.404c.29 0 .483.193.483.483s-.193.484-.435.484h.001zM36.387 31.742c-.29 0-.484-.193-.484-.483s.194-.484.484-.484h3.387c.484 0 .92-.436.92-.92v-2.854-.097c-.146-.194-1.017-1.161-6.968-2.516-.097 0-.145-.049-.242-.097-.049-.049-4.258-3.92-11.468-3.92h-.532c-.29 0-.484-.193-.484-.483s.194-.484.484-.484h.532c7.113 0 11.323 3.484 12.049 4.113 6.92 1.549 7.403 2.71 7.549 3.097a.704.704 0 0 1 .049.532v2.758c0 1.016-.823 1.887-1.84 1.887h-3.435l-.001-.049zm4.355-5.032c0 .049 0 .049 0 0 0 .049 0 .049 0 0zM28.984 31.742h-10.5c-.29 0-.484-.193-.484-.483s.194-.484.484-.484h10.5c.29 0 .483.193.483.484 0 .29-.242.483-.483.483z" fill="#116ECB"/><path d="M13.646 33.87a2.86 2.86 0 0 1-2.855-2.854 2.86 2.86 0 0 1 2.854-2.854 2.86 2.86 0 0 1 2.855 2.854c0 .774-.29 1.452-.823 2.033-.532.483-1.258.774-2.032.822zm0-4.74a1.89 1.89 0 0 0-1.888 1.886 1.89 1.89 0 0 0 1.888 1.887 1.89 1.89 0 0 0 1.886-1.887 1.86 1.86 0 0 0-1.886-1.887zM33.774 33.823a2.86 2.86 0 0 1-2.855-2.855 2.86 2.86 0 0 1 2.855-2.854 2.86 2.86 0 0 1 2.855 2.854 2.829 2.829 0 0 1-2.855 2.855zm0-4.694a1.89 1.89 0 0 0-1.887 1.887 1.89 1.89 0 0 0 1.887 1.887 1.89 1.89 0 0 0 1.887-1.887 1.86 1.86 0 0 0-1.887-1.887zM30 24.87h-9.823c-.29 0-.483-.193-.483-.483s.193-.484.483-.484H30c.29 0 .484.194.484.484s-.243.484-.484.484z" fill="#116ECB"/><path d="M21.92 24.87c-.29 0-.484-.193-.484-.483v-4.5c0-.29.193-.484.483-.484s.484.194.484.484v4.5c0 .242-.242.484-.483.484zM9.29 29.032H6.968c-.29 0-.484-.193-.484-.483s.193-.484.484-.484H9.29c.29 0 .484.194.484.484s-.193.483-.484.483zM41.032 29.032H38.71c-.29 0-.484-.193-.484-.483s.194-.484.484-.484h2.322c.29 0 .484.194.484.484s-.193.483-.483.483zM14.177 23.855h-.339c-2.37-.194-4.21-2.274-4.016-4.646 0-2.08 1.451-3.87 3.484-4.306a.39.39 0 0 1 .436.145l.047.048a.468.468 0 0 1 0 .677 2.525 2.525 0 0 0-.822 1.887c0 .726.242 1.404.774 1.887a2.525 2.525 0 0 0 1.887.823c.726 0 1.403-.242 1.887-.774l.145-.145c.146-.146.34-.194.533-.146.193.097.29.29.29.484a4.3 4.3 0 0 1-4.306 4.064v.002zM10.79 19.21c-.145 1.935 1.258 3.532 3.146 3.677.92.048 1.79-.194 2.467-.823.34-.29.63-.677.823-1.064-1.354.63-3.048.387-4.161-.774a3.43 3.43 0 0 1-1.016-2.613c0-.436.097-.87.242-1.306-.92.677-1.5 1.693-1.5 2.903 0-.048 0-.048 0 0z" fill="#116ECB"/></svg>