<svg width="64" height="64" viewBox="0 0 64 64" fill="none" xmlns="http://www.w3.org/2000/svg"><path d="M25.484 55.484a.769.769 0 0 1-.581-.323l-3.097-5.032-5.871.839c-.258.065-.452-.065-.581-.258-.129-.193-.194-.452-.065-.645l5.355-11.419c.129-.323.516-.452.839-.323.323.129.452.516.323.839l-4.839 10.387 5.097-.774c.258-.065.516.065.645.323l2.71 4.387 3.806-8.194c.129-.323.516-.452.839-.323.323.129.452.516.323.839l-4.323 9.29c-.129.258-.323.387-.581.387h.001zM38.516 55.484c-.258 0-.516-.129-.581-.387l-4.323-9.29c-.129-.323 0-.71.323-.839s.71 0 .839.323l3.806 8.194 2.71-4.387c.129-.194.387-.323.645-.323l5.097.774-4.839-10.387c-.129-.323 0-.71.323-.839s.71 0 .839.323L48.71 50.13c.129.194.065.452-.065.645s-.387.258-.581.258l-5.871-.839-3.097 5.032c-.129.194-.323.258-.581.258h.001zM32 12.323c-.387 0-.645-.258-.645-.645V9.097c0-.387.258-.645.645-.645s.645.258.645.645v2.581c0 .387-.258.645-.645.645zM38.387 14.065c-.129 0-.194 0-.323-.065-.323-.194-.387-.581-.258-.903l1.29-2.194c.194-.323.581-.387.903-.258.323.194.387.581.258.903l-1.29 2.194a.769.769 0 0 1-.581.323h.001zM43.032 18.774a.678.678 0 0 1-.581-.323c-.194-.323-.065-.71.258-.903l2.258-1.226c.323-.194.71-.064.903.258.193.322.065.71-.258.903l-2.258 1.226c-.129.064-.258.064-.323.064l.001.001zM47.161 25.29l-2.581-.064a.647.647 0 0 1-.645-.645c0-.387.323-.645.645-.645l2.581.064c.387 0 .645.323.645.645s-.323.645-.645.645zM25.613 14.065a.769.769 0 0 1-.581-.323l-1.29-2.194c-.194-.323-.064-.71.258-.903.322-.193.71-.065.903.258l1.29 2.194c.194.323.064.71-.258.903-.064.065-.194.065-.323.065h.001zM20.968 18.774c-.129 0-.194 0-.323-.064l-2.194-1.226c-.323-.194-.452-.581-.258-.903.194-.322.581-.452.903-.258l2.194 1.226c.323.194.452.581.258.903-.129.258-.323.323-.581.323l.001-.001zM16.839 25.29a.646.646 0 0 1-.645-.645c0-.387.258-.645.645-.645l2.516-.064c.323 0 .645.258.645.645s-.258.645-.645.645l-2.516.064zM19.097 32.903a.769.769 0 0 1-.581-.323c-.194-.323-.064-.71.194-.903l2.194-1.355c.323-.194.71-.064.903.194.194.323.064.71-.194.903l-2.194 1.355a.49.49 0 0 1-.323.129h.001zM44.903 32.903c-.129 0-.258 0-.323-.065l-2.194-1.355c-.323-.194-.387-.581-.194-.903.193-.322.581-.387.903-.194l2.194 1.355c.323.194.387.581.194.903-.129.129-.387.258-.581.258l.001.001zM32.323 27.032a2.52 2.52 0 0 1-2.516-2.516A2.52 2.52 0 0 1 32.323 22a2.52 2.52 0 0 1 2.516 2.516 2.52 2.52 0 0 1-2.516 2.516zm0-3.742c-.71 0-1.226.581-1.226 1.226s.581 1.226 1.226 1.226c.71 0 1.226-.581 1.226-1.226s-.516-1.226-1.226-1.226z" fill="#116ECB"/><path d="M34.194 24.581c-.258 0-.516-.194-.645-.452-.129-.323.065-.71.387-.839l8-2.645c.323-.129.71.064.839.387s-.065.71-.387.839l-7.935 2.645c-.129.064-.194.064-.258.064l-.001.001zM28.129 26.581a.621.621 0 0 1-.581-.452c-.129-.323.064-.71.387-.839l2.387-.774c.323-.129.71.064.839.387s-.064.71-.387.839l-2.387.774c-.064.064-.129.064-.258.064v.001z" fill="#116ECB"/><path d="M32 40.129c-8.71 0-15.806-7.097-15.806-15.806S23.291 8.517 32 8.517c8.71 0 15.806 7.097 15.806 15.806S40.709 40.129 32 40.129zm0-30.323c-8 0-14.516 6.516-14.516 14.516S24 38.838 32 38.838s14.516-6.516 14.516-14.516S40 9.806 32 9.806z" fill="#116ECB"/></svg>