<svg width="64" height="64" viewBox="0 0 64 64" fill="none" xmlns="http://www.w3.org/2000/svg"><path d="M39.484 55.484c-.387 0-.645-.258-.645-.645s.258-.645.645-.645h13.548c.645 0 1.097-.516 1.16-1.16v-42c0-.324-.128-.646-.322-.84-.194-.258-.516-.387-.84-.387H32.064c-.645 0-1.161.581-1.161 1.226v11.548c0 .387-.258.645-.645.645s-.645-.258-.645-.645V11.033c0-1.355 1.097-2.516 2.452-2.516h20.968c.645 0 1.29.258 1.742.774.452.452.71 1.097.71 1.742v42c0 1.355-1.032 2.452-2.387 2.452H39.484z" fill="#EE7F65"/><path d="M42.58 10.774c-.064 0-.064 0 0 0l-5.676-.387c-.387 0-.645-.323-.581-.71 0-.387.323-.645.71-.58l5.613.386 5.613-.387c.387 0 .645.258.71.581a.703.703 0 0 1-.581.71l-5.806.387h-.001zM42.58 52.065c-.967 0-1.805-.839-1.805-1.87 0-1.033.839-1.807 1.806-1.807.968 0 1.806.84 1.806 1.806 0 1.097-.84 1.871-1.806 1.871zm0-2.388c-.257 0-.515.258-.515.516s.258.581.516.581.516-.258.516-.58a.508.508 0 0 0-.516-.517zM23.032 50.71l9.419-9.613-1.742-1.806-7.677 7.871-7.742-7.871-1.742 1.806 9.484 9.613z" fill="#EE7F65"/><path d="M23.032 43.484l5.87-6.065-1.741-1.742-4.13 4.194-4.193-4.194-1.742 1.742 5.936 6.065z" fill="#EE7F65"/><path d="M20.839 33.87l2.194 2 2.129-2-2.13-1.741-2.193 1.742z" fill="#EE7F65"/><path d="M32.258 55.484H13.87a5.342 5.342 0 0 1-5.355-5.355V31.29a5.342 5.342 0 0 1 5.355-5.355h18.387a5.342 5.342 0 0 1 5.355 5.355v18.903c-.065 2.903-2.452 5.29-5.355 5.29v.001zM13.87 27.226a4.047 4.047 0 0 0-4.064 4.064v18.903a4.048 4.048 0 0 0 4.064 4.065h18.387a4.048 4.048 0 0 0 4.065-4.065V31.29a4.047 4.047 0 0 0-4.065-4.064H13.87z" fill="#EE7F65"/><path d="M32.323 32.58a1.225 1.225 0 1 1 0-2.451c.71 0 1.226.58 1.226 1.226 0 .645-.516 1.226-1.226 1.226zm0-1.29s-.065 0 0 0c-.065.064.065.064 0 0 .065 0 .065 0 0 0z" fill="#EE7F65"/></svg>