<svg width="48" height="48" viewBox="0 0 48 48" fill="none" xmlns="http://www.w3.org/2000/svg"><path d="M11.274 31.549H9.871c-1.452 0-2.468-.34-3.049-.968-.436-.532-.436-1.064-.436-1.21v-5.71c0-.29.194-.483.484-.483s.484.194.484.484v5.758s0 .242.193.533c.243.29.871.629 2.274.629h1.404c.29 0 .483.194.483.484s-.193.483-.435.483h.001zM36.387 31.549c-.29 0-.484-.194-.484-.484s.194-.484.484-.484h3.387c.484 0 .92-.436.92-.92v-2.854-.096c-.097-.194-1.017-1.162-6.968-2.517-.097 0-.145-.049-.242-.096-.049-.05-4.258-3.92-11.468-3.92h-.532c-.29 0-.484-.194-.484-.484s.194-.483.484-.483h.532c7.113 0 11.323 3.483 12.049 4.113 6.92 1.548 7.403 2.71 7.549 3.096a.704.704 0 0 1 .049.533v2.758c0 1.016-.823 1.887-1.84 1.887h-3.435l-.001-.05zM28.984 31.549h-10.5c-.29 0-.484-.194-.484-.484s.194-.484.484-.484h10.5c.29 0 .483.194.483.484s-.242.484-.483.484z" fill="#116ECB"/><path d="M13.646 33.677a2.86 2.86 0 0 1-2.855-2.854 2.86 2.86 0 0 1 2.854-2.855 2.86 2.86 0 0 1 2.855 2.855c0 .774-.29 1.451-.823 2.032a2.852 2.852 0 0 1-2.032.823zm0-4.741a1.89 1.89 0 0 0-1.888 1.887 1.89 1.89 0 0 0 1.888 1.887 1.87 1.87 0 0 0 1.306-.533 1.87 1.87 0 0 0 .533-1.306 1.832 1.832 0 0 0-1.84-1.936zM33.774 33.63a2.86 2.86 0 0 1-2.855-2.855 2.86 2.86 0 0 1 2.855-2.855 2.86 2.86 0 0 1 2.855 2.855 2.829 2.829 0 0 1-2.855 2.854zm0-4.694a1.89 1.89 0 0 0-1.887 1.887 1.89 1.89 0 0 0 1.887 1.887 1.89 1.89 0 0 0 1.887-1.887 1.89 1.89 0 0 0-1.887-1.887zM30 24.677h-9.823c-.29 0-.483-.193-.483-.483s.193-.484.483-.484H30c.29 0 .484.193.484.483s-.243.484-.484.484z" fill="#116ECB"/><path d="M21.92 24.677c-.29 0-.484-.193-.484-.483v-4.5c0-.29.193-.484.483-.484s.484.193.484.483v4.5c0 .29-.242.484-.483.484zM9.29 28.839H6.968c-.29 0-.484-.194-.484-.484s.193-.483.484-.483H9.29c.29 0 .484.193.484.483s-.193.484-.484.484zM41.032 28.839H38.71c-.29 0-.484-.194-.484-.484s.194-.483.484-.483h2.322c.29 0 .484.193.484.483s-.193.484-.483.484zM13.646 25.936c-3.194 0-5.807-2.613-5.807-5.758s2.613-5.758 5.806-5.758c3.194 0 5.807 2.613 5.807 5.758s-2.613 5.758-5.807 5.758zm0-10.597c-2.662 0-4.84 2.177-4.84 4.79s2.178 4.79 4.84 4.79c2.661 0 4.838-2.177 4.838-4.79s-2.177-4.79-4.839-4.79z" fill="#116ECB"/><path d="M13.646 23.758c-1.984 0-3.63-1.646-3.63-3.63 0-1.983 1.646-3.629 3.63-3.629 1.983 0 3.629 1.646 3.629 3.63a3.624 3.624 0 0 1-3.63 3.629zm0-6.29c-1.453 0-2.662 1.21-2.662 2.66 0 1.452 1.21 2.662 2.662 2.662 1.45 0 2.66-1.21 2.66-2.662a2.653 2.653 0 0 0-2.66-2.66z" fill="#116ECB"/><path d="M13.646 21.677c-.823 0-1.5-.677-1.5-1.5 0-.822.677-1.5 1.5-1.5.822 0 1.5.678 1.5 1.5 0 .823-.63 1.5-1.5 1.5zm0-2.08a.538.538 0 0 0-.533.532c0 .29.242.533.533.533.29 0 .532-.242.532-.533 0-.29-.194-.532-.533-.532z" fill="#116ECB"/></svg>