<svg xmlns="http://www.w3.org/2000/svg" width="18" height="18" viewBox="0 0 18 18"><path fill="#444" d="M9 1.622c2.403 0 2.688.009 3.637.052 1.024.047 1.975.252 2.706.983s.937 1.682.983 2.706c.043.949.052 1.234.052 3.637s-.009 2.688-.052 3.637c-.047 1.024-.252 1.975-.983 2.706s-1.682.937-2.706.983c-.949.043-1.234.052-3.637.052s-2.688-.009-3.637-.052c-1.024-.047-1.975-.252-2.706-.983s-.937-1.682-.983-2.706c-.043-.949-.052-1.234-.052-3.637s.009-2.688.052-3.637c.047-1.024.252-1.975.983-2.706s1.682-.937 2.706-.983c.949-.043 1.234-.052 3.637-.052zM9 0C6.556 0 6.249.01 5.289.054 3.827.121 2.542.479 1.51 1.51S.121 3.826.054 5.289C.01 6.249 0 6.556 0 9s.01 2.751.054 3.711c.067 1.463.425 2.747 1.456 3.779s2.316 1.389 3.779 1.456C6.249 17.99 6.556 18 9 18s2.751-.01 3.711-.054c1.463-.067 2.747-.425 3.779-1.456s1.389-2.316 1.456-3.779C17.99 11.751 18 11.444 18 9s-.01-2.751-.054-3.711c-.067-1.462-.425-2.747-1.456-3.779S14.174.121 12.711.054C11.751.01 11.444 0 9 0z"/><path fill="#444" d="M9 4.378C6.447 4.378 4.379 6.447 4.379 9A4.621 4.621 0 1 0 9 4.379zM9 12a3 3 0 1 1 0-6 3 3 0 0 1 0 6zM14.884 4.196a1.08 1.08 0 1 1-2.161-.001 1.08 1.08 0 0 1 2.161.001z"/></svg>