<svg xmlns="http://www.w3.org/2000/svg" width="18" height="18" viewBox="0 0 18 18"><path fill="#444" d="M4.789 6.429v9.945H1.478V6.429h3.311zm.212-3.086l.001.068c0 .457-.193.869-.502 1.159a1.919 1.919 0 0 1-1.292.497l-.075-.001h.004a1.795 1.795 0 0 1-1.325-.495 1.64 1.64 0 0 1-.526-1.206v-.022-.036c0-.47.2-.893.52-1.189a1.881 1.881 0 0 1 1.271-.491l.084.002c.024-.002.056-.002.089-.002.484 0 .924.187 1.252.492.316.305.513.733.513 1.208v.02-.001zm11.713 7.322v5.709H13.41v-5.323a2.89 2.89 0 0 0-.412-1.666 1.433 1.433 0 0 0-1.284-.585l-.05-.001c-.381 0-.732.131-1.009.351a2.14 2.14 0 0 0-.634.845 2.37 2.37 0 0 0-.116.74l.002.095v5.55H6.622V9.881 6.429h3.304v1.446c.116-.22.236-.407.368-.584a4.46 4.46 0 0 1 .548-.502c.258-.198.55-.348.866-.44a3.92 3.92 0 0 1 1.114-.159h.059a3.555 3.555 0 0 1 2.759 1.136 4.757 4.757 0 0 1 1.075 3.353l.001-.014z"/></svg>