<svg width="63" height="64" viewBox="0 0 63 64" fill="none" xmlns="http://www.w3.org/2000/svg"><path d="M20.549 27.548c0 .646.501 1.162 1.128 1.162.627 0 1.128-.516 1.128-1.162 0-.645-.501-1.096-1.128-1.096-.627-.065-1.128.451-1.128 1.096zm1.253-.064c0 .064-.062.129-.125.129s-.125-.065-.125-.13c0-.128.25-.128.25 0zM37.598 22.452c3.072 0 5.516-2.517 5.516-5.678s-2.444-5.677-5.516-5.677c-3.071 0-5.516 2.516-5.516 5.677 0 3.162 2.507 5.678 5.516 5.678zm0-10.065c2.32 0 4.262 2 4.262 4.387 0 2.387-1.943 4.387-4.262 4.387-2.32 0-4.262-2-4.262-4.387 0-2.387 1.943-4.387 4.262-4.387z" fill="#004B8D"/><path d="M36.344 19.806c.377 0 .627-.258.627-.645v-1.548h.44l.94 1.806a.655.655 0 0 0 .563.323c.126 0 .188 0 .314-.065.313-.193.439-.58.25-.903l-.752-1.42c.565-.322 1.003-1.031.94-1.741a1.772 1.772 0 0 0-1.88-1.678h-1.442c-.376 0-.626.259-.626.646v4.58c0 .323.25.645.626.645zm.627-4.58h.878c.313 0 .564.193.564.516s-.188.58-.502.58h-.94v-1.096zM30.766 24.516c0 .387.313.645.69.58 1.441-.128 2.883.13 4.262.646.062 0 .125.064.25.064.251 0 .502-.129.564-.387.126-.322-.062-.71-.376-.838a11.146 11.146 0 0 0-4.826-.71c-.376 0-.627.323-.564.645z" fill="#004B8D"/><path d="M54.271 36.065a.657.657 0 0 0-.877-.065c-.251.258-.94.194-1.693-.323.126-.064.251-.129.314-.193 0 0 .062 0 .062-.065.753-.58 1.317-1.483 1.567-2.451.314-1.162.251-2.387-.188-3.226-.25-.516-.626-.839-1.128-.903-1.254-.323-2.695.838-3.197 2.774-.313.968-.313 2 .063 3.032.063.13.125.194.188.323-.501 0-.94-.065-1.253-.258a.767.767 0 0 1-.314-.323v-.193c-.063-4.581-2.256-8.968-5.892-11.613-.25-.194-.69-.13-.877.129-.188.258-.126.71.125.903 3.322 2.451 5.328 6.387 5.39 10.58v.323c-.125 5.097-3.384 9.807-8.399 12.13-.25.128-.376.322-.376.58v4.193h-4.011v-1.806a1.56 1.56 0 0 0-1.567-1.548h-3.699c-.376 0-.814.129-1.065.387-.314.258-.439.645-.502 1.096v1.871h-4.011V47.29c0-.258-.126-.516-.376-.58a14.82 14.82 0 0 1-6.77-6.194c-.439-.774-1.19-1.226-2.068-1.226h-1.755c-1.254-4.516-2.32-9.677-2.006-10.838 1.755.58 3.635.516 5.39-.13 0 0 .063 0 .063-.064.188-.129.313-.258.439-.387l.063-.064c1.316-2.259 3.196-4.13 5.39-5.355.063-.065.188-.13.188-.194.125-.129.125-.258.125-.451l-.062-4.968c2.319.516 4.262 3.484 4.262 3.484a.565.565 0 0 0 .502.258h.188c.814-.13 1.63-.194 2.507-.194h1.379c.376 0 .627-.258.627-.645s-.251-.645-.627-.645h-1.38c-.751 0-1.566.064-2.318.193-.69-.967-3.009-3.806-5.767-3.806a.562.562 0 0 0-.439.193.594.594 0 0 0-.188.452l.063 5.355a16.244 16.244 0 0 0-5.579 5.613 6.394 6.394 0 0 1-4.638 0 1.07 1.07 0 0 0-1.066.193c-.564.517-1.065 2.904 1.755 12.775.063.258.314.451.627.451h2.257c.376 0 .752.194 1.003.58a16.355 16.355 0 0 0 6.957 6.517V52c0 .387.25.645.627.645h5.265c.376 0 .627-.258.627-.645v-2.452c0-.064.063-.129.063-.193 0 0 .062-.065.188-.065h3.76c.063 0 .126.065.189.065 0 0 .062.064.062.193V52c0 .387.251.645.627.645h5.265c.376 0 .627-.258.627-.645v-4.387c4.764-2.323 8.023-6.774 8.65-11.678.69.323 1.63.452 2.57.259.815.838 1.818 1.29 2.633 1.29.501 0 .94-.13 1.316-.452.313-.322.376-.71.125-.967zm-3.573-1.355c-.125-.194-.25-.387-.313-.581-.25-.645-.25-1.42 0-2.129.313-1.161 1.066-1.936 1.567-1.936h.125c.126.065.251.13.314.323.25.516.313 1.355.063 2.194a3.235 3.235 0 0 1-1.129 1.742c-.188.193-.376.322-.627.387z" fill="#004B8D"/></svg>