<svg xmlns="http://www.w3.org/2000/svg" width="18" height="18" viewBox="0 0 18 18"><path fill="#444" d="M9 0C4.05 0 0 4.05 0 9a8.948 8.948 0 0 0 5.737 8.381c-.056-.731-.169-1.8.056-2.587.169-.675 1.069-4.5 1.069-4.5s-.281-.563-.281-1.35c0-1.238.731-2.194 1.631-2.194.787 0 1.125.563 1.125 1.294 0 .787-.506 1.912-.731 2.981-.225.9.45 1.631 1.35 1.631 1.575 0 2.813-1.688 2.813-4.106 0-2.138-1.575-3.656-3.769-3.656-2.587 0-4.05 1.913-4.05 3.881 0 .787.281 1.575.675 2.081.056.112.056.169.056.281-.056.281-.225.9-.225 1.012-.112.169-.225.225-.394.113-1.125-.506-1.8-2.194-1.8-3.488 0-2.813 2.081-5.456 5.963-5.456 3.15 0 5.569 2.25 5.569 5.175 0 3.094-1.969 5.625-4.669 5.625-.9 0-1.744-.45-2.081-1.012 0 0-.45 1.744-.563 2.137-.225.787-.731 1.744-1.125 2.363C7.2 17.887 8.1 18 9 18c4.95 0 9-4.05 9-9s-4.05-9-9-9z"/></svg>