<svg width="16" height="16" viewBox="0 0 16 16" fill="none" xmlns="http://www.w3.org/2000/svg"><path d="M5.985 10.137c1.099 0 2.076-.366 2.931-1.221.855-.855 1.221-1.832 1.221-2.931 0-1.1-.366-2.077-1.221-2.932-.855-.855-1.832-1.22-2.931-1.22-1.1 0-2.077.365-2.932 1.22s-1.22 1.833-1.22 2.932.365 2.076 1.22 2.931 1.71 1.221 2.932 1.221zm5.496 0L16 14.657 14.656 16l-4.519-4.52v-.732l-.244-.244c-1.1.977-2.443 1.343-3.908 1.343-1.71 0-3.054-.61-4.275-1.71A5.816 5.816 0 0 1 0 5.985C0 4.397.61 2.93 1.71 1.71 2.81.489 4.275 0 5.985 0c1.71 0 3.053.61 4.152 1.71 1.1 1.1 1.71 2.565 1.71 4.275 0 1.465-.488 2.809-1.465 3.908l.244.244h.855z" fill="#1E72C3"/></svg>