<svg xmlns="http://www.w3.org/2000/svg" width="18" height="18" viewBox="0 0 18 18"><path fill="#444" d="M18 3.431c-.675.281-1.35.506-2.138.563a3.635 3.635 0 0 0 1.631-2.025c-.731.45-1.519.731-2.362.9-.675-.731-1.631-1.181-2.644-1.181A3.708 3.708 0 0 0 8.775 5.4c0 .281.056.563.112.844-3.094-.169-5.794-1.631-7.65-3.881a3.536 3.536 0 0 0-.506 1.856c0 1.294.675 2.419 1.631 3.094a3.442 3.442 0 0 1-1.688-.45v.056c0 1.8 1.294 3.262 2.981 3.6-.337.056-.619.113-.956.113-.225 0-.45 0-.675-.056.45 1.463 1.856 2.531 3.431 2.588-1.238 1.012-2.869 1.575-4.612 1.575-.281 0-.619 0-.9-.056 1.688 1.013 3.656 1.631 5.737 1.631 6.806 0 10.519-5.625 10.519-10.519v-.45c.675-.563 1.294-1.181 1.8-1.913z"/></svg>