<svg xmlns="http://www.w3.org/2000/svg" width="18" height="18" viewBox="0 0 18 18"><path fill="#444" d="M17.831 5.4s-.169-1.237-.731-1.8c-.675-.731-1.462-.731-1.8-.787-2.531-.169-6.3-.169-6.3-.169s-3.769 0-6.3.169c-.337.056-1.125.056-1.8.788-.563.563-.731 1.8-.731 1.8S0 6.864 0 8.326v1.35c0 1.463.169 2.925.169 2.925s.169 1.237.731 1.8c.675.731 1.575.675 1.969.787C4.332 15.3 9 15.357 9 15.357s3.769 0 6.3-.169c.338-.056 1.125-.056 1.8-.787.563-.563.731-1.8.731-1.8S18 11.138 18 9.676v-1.35c0-1.462-.169-2.925-.169-2.925zM7.144 11.362V6.3l4.837 2.531-4.838 2.531z"/></svg>